<svg xmlns="http://www.w3.org/2000/svg" viewBox="0 0 561.26 438.3" id="sleeping-panda">
  <g>
    <g>
      <path fill="#fff" d="M445.32 164.84C431.77 157.07 420.24 147.46 411 135c-2.08-2.82-4.41-3.3-7.47-3.6-14.76-1.46-26.73-8.41-33.36-21.5-3.7-7.3-7.62-7-13.77-5.48-50.38 12.79-89.45 42.83-122 81.77-19.06 22.79-29.32 49.9-31.87 79.86-1.86 21.79 2.85 42.51 7.25 63.59 8.62 41.31 33.08 67.86 72 82.07 27 9.86 55.22 12.4 85.42 13.09a290.89 290.89 0 0 0 54.88-5.8c7.16-1.46 11.34-3.55 7.83-11.76-.81-1.91-.42-4.39-.39-6.6.54-36.94 43.83-71.79 80.55-64.65 5.54 1.07 7.78.5 9.15-5.81C533 267.38 502.05 197.32 445.32 164.84zM394.77 294.32S365 319.06 370.71 286.7l19.5-110.92s4.93-23.74 31.89 2.74C440.5 196.59 489.76 225.72 394.77 294.32zM174.43 237.27A148.41 148.41 0 0 0 107 240.7C89.62 245.75 77 256.74 70.94 274c-5.93 17-11.46 34.26-4 52.46 5.15 12.61 8.75 25.57 9.57 39.34a84.69 84.69 0 0 0 8 30.61c2.44 5.26 5.91 8.51 11.74 10 12.75 3.33 25.6 4.24 39.83 3.49-13.15-14-16.9-29.93-10.6-45.88 5.79-14.64 19.21-17.94 32.84-20.44 2.43-.44 5-1.07 7.35-.74 7.68 1.08 10-2.91 11.23-9.72 5.6-29.82 5.89-59.83 4.36-90C181 238 177.58 237.82 174.43 237.27z"></path>
      <path fill="#fff" d="M425.18,203c-5.38-12.89-24.29-6.08-22.39,6.05h0a13,13,0,0,0,.83,3,12.76,12.76,0,0,0,1.65,2.84c1.81,5.18,3.53,13,.85,19.85-4.49,11.49-13.38,18.4-9.43,25.32s14.32,5.92,23.7-17.29c6.05-15,6.29-27.14,5.7-33.91A11.56,11.56,0,0,0,425.18,203Z"></path>
      <path d="M298.68 54.15c18.44 8 38 7 57.46 6.79 2.85 0 4.44-2 4.52-4.9a4.78 4.78 0 0 0-4.28-5.17 51.81 51.81 0 0 0-7.38-.16c-12.77-.17-25.62.54-38.42-3.48 1.25-3.49 3.67-4.48 5.6-5.84q21.45-15.09 43-30c2.34-1.63 4.49-3.31 3.72-6.51S359.65 1 356.71.79C339-.57 321.24.22 303.5.3c-3.4 0-5.79 1.52-5.76 5.25s2.46 5.05 5.89 5c2.46 0 4.93 0 7.39 0h29.64c-3.37 2.58-5.2 4-7.08 5.41-12.1 8.91-24.32 17.66-36.27 26.76C291.43 47.21 292 51.24 298.68 54.15zM415 55.53c1.08 2.68 3.47 3.35 6 3.39 10.83.16 21.65.12 32.29-2.45 3.52-.85 6.33-2.43 5.62-6.34-.79-4.41-4.17-4.77-8-3.87-5.62 1.32-11.28 2.54-18.4 1.52 2.38-3 4.11-5.3 5.93-7.49a72.61 72.61 0 0 0 9.17-13.36c2.11-4.16 1.25-7.39-3.6-8.3a75.15 75.15 0 0 0-22.8-.69c-2.95.34-5.09 2.12-4.87 5.43.25 3.7 2.69 5 6.11 4.81s7.15-.8 11.31.55c-5.07 7.8-11.12 13.84-16.83 20.15C415.16 50.83 413.92 52.87 415 55.53z"></path>
      <path d="M360.68 23.37c.27 5.08 4.38 4.91 8.34 4.64 6.1-.41 12.32-.94 18 3.77-6.09 4.55-11.95 8.93-17.82 13.3-2.33 1.74-3.94 3.88-3 6.93.86 2.74 3.2 3.61 5.81 3.73a113.2 113.2 0 0 1 26.11 4.76c3.32 1 6.71.85 7.77-3.26s-1.72-5.82-5.1-6.78c-4.77-1.36-9.57-2.61-15.69-4.26 4.37-2.93 7.43-5 10.46-7 6.55-4.44 6.87-7.86 1.05-13.44-7.94-7.58-17.68-9.18-28.16-8.23C364.59 17.87 360.41 18.42 360.68 23.37zM537.21 276.93c-5.38-1.84-6.92-4.74-7.93-9.66-10.19-49.74-37.67-87.26-81.16-113-18.8-11.12-32.94-25.68-38.92-47.16-1.81-6.5-6-10.26-12.33-12.55C383.24 89.63 369.63 90.93 356 94c-31.42 7-58.28 22.57-84 41.84-33.33 25-59.48 54.59-72.91 94.44-1.22 3.62-2.46 3.7-5.74 2.46-33.72-12.74-67.17-10.28-100.29 2.41a12 12 0 0 1-8.38.55c-17.69-5.17-31.26 0-41.44 15.57-7.14 10.91-11 23.07-13.79 35.68-.66 3-.92 6-4.8 7.49C14 298.54 8.05 307.14 4.62 317.67-.11 332.25-.1 347.3.42 362.38c-.62 1.33-.65 2.56.57 3.59.09.94.19 1.87.28 2.81 2.56 9.23 4.38 18.65 9.88 26.88C18 405.85 27 411.34 39.38 412.61c23.94 2.46 47.94 4 71.85 7.17a164.87 164.87 0 0 0 79.08-8.7c12.93-4.74 27.24-3.51 40.74-6.13 7.78-1.51 13.86.56 20.58 4.67 26.48 16.2 56.15 22 86.6 24.49 32.4 2.68 64.48 1.07 96-7.59 6.54-1.8 8.93 4.84 13.41 7.25C475 444.33 498.17 435.5 518.3 417c16.41-15.06 26-33.52 20.52-56.84-.86-3.62 1.4-4.86 3.2-6.72a68.75 68.75 0 0 0 17.36-29.71C565.35 302.26 556.82 283.61 537.21 276.93zm-360.36 56.2c-1.27 6.81-3.55 10.8-11.23 9.72-2.37-.33-4.92.3-7.35.74-13.63 2.5-27.05 5.8-32.84 20.44-6.3 16-2.55 31.9 10.6 45.88-14.23.75-27.08-.16-39.83-3.49-5.83-1.52-9.3-4.77-11.74-10a84.69 84.69 0 0 1-8-30.61c-.82-13.77-4.42-26.73-9.57-39.34C59.48 308.24 65 291 70.94 274c6-17.24 18.68-28.23 36.09-33.28a148.41 148.41 0 0 1 67.4-3.43c3.15.55 6.52.72 6.78 5.88C182.74 273.3 182.45 303.31 176.85 333.13zm342.41-2.93c-1.37 6.31-3.61 6.88-9.15 5.81-36.72-7.14-80 27.71-80.55 64.65 0 2.21-.42 4.69.39 6.6 3.51 8.21-.67 10.3-7.83 11.76a290.89 290.89 0 0 1-54.88 5.8c-30.2-.69-58.4-3.23-85.42-13.09-38.92-14.21-63.38-40.76-72-82.07-4.4-21.08-9.11-41.8-7.25-63.59 2.55-30 12.81-57.07 31.87-79.86 32.55-38.94 71.62-69 122-81.77 6.15-1.57 10.07-1.82 13.77 5.48 6.63 13.09 18.6 20 33.36 21.5 3.06.3 5.39.78 7.47 3.6 9.2 12.44 20.73 22 34.28 29.82C502.05 197.32 533 267.38 519.26 330.2z"></path>
      <path d="M422.1,178.52c-27-26.48-31.89-2.74-31.89-2.74L370.71,286.7c-5.69,32.36,24.06,7.62,24.06,7.62C489.76,225.72,440.5,196.59,422.1,178.52Zm-1.71,64.19c-9.38,23.21-19.75,24.2-23.7,17.29s4.94-13.83,9.43-25.32c2.68-6.87,1-14.67-.85-19.85a12.76,12.76,0,0,1-1.65-2.84,13,13,0,0,1-.83-3h0c-1.9-12.13,17-18.94,22.39-6.05a11.56,11.56,0,0,1,.91,5.82C426.68,215.57,426.44,227.74,420.39,242.71Z"></path>
    </g>
  </g>
</svg>
